<?xml version="1.0" encoding="UTF-8"?>
<svg id="Layer_1" data-name="Layer 1" xmlns="http://www.w3.org/2000/svg" viewBox="0 0 54.63 76.19">
  <defs>
    <style>
      .cls-1 {
        fill: #3bbeff;
      }

      .cls-2 {
        fill: #f70069;
      }
    </style>
  </defs>
  <path class="cls-1" d="M30.36,22.23c.04,1.55-.48,3.96,1.25,4.74,3.79,1.71,2.39-3.94,3.27-4.56,7.66.63,7.52-5,0-4.5-.68-.43.77-3.17-1.22-4.15-2.69-1.32-3.38,2.35-3.31,4.34-6.96-1.05-6.52,4.94,0,4.13Z"/>
  <path class="cls-2" d="M40.58,55.57c-2.26,2.36-7.21-1.01-4.62-4.01,2.32-2.69,6.68,1.85,4.62,4.01Z"/>
  <path class="cls-2" d="M32.73,45.83c3.22-.51,4.45,5.34.69,5.71-4.13.41-3.95-5.2-.69-5.71Z"/>
  <path class="cls-2" d="M30.26,52.47c2.07,2.07-1.08,6.8-4.07,4.27-2.98-2.52,1.72-6.62,4.07-4.27Z"/>
  <path class="cls-2" d="M34.61,61.79c-3.75,1.11-5.04-4.3-1.88-5.21,3.67-1.06,4.71,4.38,1.88,5.21Z"/>
  <path d="M52.01,62.51c1.09-1.74,1.89-3.73,2.34-6.03.48-2.43.18-4.76.18-7.2,0-1.39-1.67-4.61-2.08-5.34-2.32-4.08-6-7.15-10.43-8.73.48-.3,1.01-.57,1.55-.85.66-.34,1.35-.69,1.97-1.12,5.55-3.82,8.26-8.97,7.64-14.51-.73-6.55-6.09-12.73-13.65-15.75C33.88.71,19.35-.4,13.58.13,8.32.61,3.67,3.12,1.44,6.67-.22,9.33-.45,12.45.78,15.71c2.2,5.83,8.73,9.02,14.93,11.36l.33,19.89-.08.11C5.4,49.18.06,58,1,65.38c.68,5.36,4.96,10.82,14.85,10.82.63,0,1.28-.02,1.95-.07,7.25-.49,14.64-2.15,21.49-4.54,5.33-1.86,9.95-4.63,12.72-9.08ZM42.21,64.57c-6.08,3.16-19.9,6.1-26.52,6.21-4.81.07-8.27-1.99-9.16-5.52-.86-3.41.86-8.44,6.64-11.42.87-.45,1.93-.74,2.96-1.02,2.47-.68,5.28-1.45,5.75-4.71.15-1.04-.03-1.91-.19-2.68-.11-.51-.21-.99-.21-1.5-.02-1.67-.02-3.34-.02-5,0-4.81.02-9.79-.6-14.69l-.03-.26-.21-.16c-1.88-1.43-3.94-2.29-5.93-3.12-3-1.25-5.84-2.43-7.95-5.45-1.32-1.89-1.58-3.69-.77-5.34,1.13-2.31,4.41-4.11,7.8-4.27.46-.02.94-.03,1.43-.03,3.61,0,7.79.58,11.85,1.14,3.49.48,6.79.94,9.79,1.06,6.8,2.55,11.07,7.56,10.87,12.77-.18,4.91-4.16,8.83-10.91,10.78-.69.2-1.52.31-2.4.44-2.69.37-6.03.83-5.93,4.33.1,3.32,4.16,3.3,6.85,3.3.8,0,1.57,0,2.07.07,6.09.94,10.67,5.46,11.67,11.51.74,4.46-.68,10.38-6.86,13.59Z"/>
</svg>