<svg width="1440" height="770" viewBox="0 0 1440 770" fill="none" xmlns="http://www.w3.org/2000/svg">
<path d="M34 246H3.5L-21.5 770H1461.5V301.5H1429.5V284H1387V332.5H1371V309H1350.5V266.5H1314V309H1296.5V284H1281.69L1277 266.5H1240.31L1245 284H1229V246H1176V309H1144V208H1104.5L1112 353H1094V284C1087.67 287 1075 285.7 1075 256.5C1075 227.3 1061.33 228.702 1054.5 233.053L1043 246V190.5H964L950.5 20.5H933V0H896.5V23.5814L885 20.5L874 233.053L863 236V218H844V225.5H833.5V152.5H801.5V246H782.5V167H766V152.5H745.5V99.5H693V190.5H680V225.5H633V266.5H606.5V236H560V284H545V208H513V284H486.5V190.5H469V167H438V190.5H428V246H413.5V236H375.5V218H311V236H284.5V320.5H255V208H242V167H224.5V143.5H179V167H167.5V310.5H144V266.5H126.5V246H82.5V266.5H63.5V284H34V246Z" fill="url(#paint0_linear_898_14)"/>
<path d="M110.562 503.02H106.238L106.215 501.203H110.141C110.789 501.203 111.355 501.094 111.84 500.875C112.324 500.656 112.699 500.344 112.965 499.938C113.238 499.523 113.375 499.031 113.375 498.461C113.375 497.836 113.254 497.328 113.012 496.938C112.777 496.539 112.414 496.25 111.922 496.07C111.438 495.883 110.82 495.789 110.07 495.789H106.742V511H104.48V493.938H110.07C110.945 493.938 111.727 494.027 112.414 494.207C113.102 494.379 113.684 494.652 114.16 495.027C114.645 495.395 115.012 495.863 115.262 496.434C115.512 497.004 115.637 497.688 115.637 498.484C115.637 499.188 115.457 499.824 115.098 500.395C114.738 500.957 114.238 501.418 113.598 501.777C112.965 502.137 112.223 502.367 111.371 502.469L110.562 503.02ZM110.457 511H105.348L106.625 509.16H110.457C111.176 509.16 111.785 509.035 112.285 508.785C112.793 508.535 113.18 508.184 113.445 507.73C113.711 507.27 113.844 506.727 113.844 506.102C113.844 505.469 113.73 504.922 113.504 504.461C113.277 504 112.922 503.645 112.438 503.395C111.953 503.145 111.328 503.02 110.562 503.02H107.34L107.363 501.203H111.77L112.25 501.859C113.07 501.93 113.766 502.164 114.336 502.562C114.906 502.953 115.34 503.453 115.637 504.062C115.941 504.672 116.094 505.344 116.094 506.078C116.094 507.141 115.859 508.039 115.391 508.773C114.93 509.5 114.277 510.055 113.434 510.438C112.59 510.812 111.598 511 110.457 511ZM118.531 504.801V504.531C118.531 503.617 118.664 502.77 118.93 501.988C119.195 501.199 119.578 500.516 120.078 499.938C120.578 499.352 121.184 498.898 121.895 498.578C122.605 498.25 123.402 498.086 124.285 498.086C125.176 498.086 125.977 498.25 126.688 498.578C127.406 498.898 128.016 499.352 128.516 499.938C129.023 500.516 129.41 501.199 129.676 501.988C129.941 502.77 130.074 503.617 130.074 504.531V504.801C130.074 505.715 129.941 506.562 129.676 507.344C129.41 508.125 129.023 508.809 128.516 509.395C128.016 509.973 127.41 510.426 126.699 510.754C125.996 511.074 125.199 511.234 124.309 511.234C123.418 511.234 122.617 511.074 121.906 510.754C121.195 510.426 120.586 509.973 120.078 509.395C119.578 508.809 119.195 508.125 118.93 507.344C118.664 506.562 118.531 505.715 118.531 504.801ZM120.699 504.531V504.801C120.699 505.434 120.773 506.031 120.922 506.594C121.07 507.148 121.293 507.641 121.59 508.07C121.895 508.5 122.273 508.84 122.727 509.09C123.18 509.332 123.707 509.453 124.309 509.453C124.902 509.453 125.422 509.332 125.867 509.09C126.32 508.84 126.695 508.5 126.992 508.07C127.289 507.641 127.512 507.148 127.66 506.594C127.816 506.031 127.895 505.434 127.895 504.801V504.531C127.895 503.906 127.816 503.316 127.66 502.762C127.512 502.199 127.285 501.703 126.98 501.273C126.684 500.836 126.309 500.492 125.855 500.242C125.41 499.992 124.887 499.867 124.285 499.867C123.691 499.867 123.168 499.992 122.715 500.242C122.27 500.492 121.895 500.836 121.59 501.273C121.293 501.703 121.07 502.199 120.922 502.762C120.773 503.316 120.699 503.906 120.699 504.531ZM140.551 508.07V498.32H142.73V511H140.656L140.551 508.07ZM140.961 505.398L141.863 505.375C141.863 506.219 141.773 507 141.594 507.719C141.422 508.43 141.141 509.047 140.75 509.57C140.359 510.094 139.848 510.504 139.215 510.801C138.582 511.09 137.812 511.234 136.906 511.234C136.289 511.234 135.723 511.145 135.207 510.965C134.699 510.785 134.262 510.508 133.895 510.133C133.527 509.758 133.242 509.27 133.039 508.668C132.844 508.066 132.746 507.344 132.746 506.5V498.32H134.914V506.523C134.914 507.094 134.977 507.566 135.102 507.941C135.234 508.309 135.41 508.602 135.629 508.82C135.855 509.031 136.105 509.18 136.379 509.266C136.66 509.352 136.949 509.395 137.246 509.395C138.168 509.395 138.898 509.219 139.438 508.867C139.977 508.508 140.363 508.027 140.598 507.426C140.84 506.816 140.961 506.141 140.961 505.398ZM148.203 501.027V511H146.035V498.32H148.086L148.203 501.027ZM147.688 504.18L146.785 504.145C146.793 503.277 146.922 502.477 147.172 501.742C147.422 501 147.773 500.355 148.227 499.809C148.68 499.262 149.219 498.84 149.844 498.543C150.477 498.238 151.176 498.086 151.941 498.086C152.566 498.086 153.129 498.172 153.629 498.344C154.129 498.508 154.555 498.773 154.906 499.141C155.266 499.508 155.539 499.984 155.727 500.57C155.914 501.148 156.008 501.855 156.008 502.691V511H153.828V502.668C153.828 502.004 153.73 501.473 153.535 501.074C153.34 500.668 153.055 500.375 152.68 500.195C152.305 500.008 151.844 499.914 151.297 499.914C150.758 499.914 150.266 500.027 149.82 500.254C149.383 500.48 149.004 500.793 148.684 501.191C148.371 501.59 148.125 502.047 147.945 502.562C147.773 503.07 147.688 503.609 147.688 504.18ZM167.293 508.539V493H169.473V511H167.48L167.293 508.539ZM158.762 504.801V504.555C158.762 503.586 158.879 502.707 159.113 501.918C159.355 501.121 159.695 500.438 160.133 499.867C160.578 499.297 161.105 498.859 161.715 498.555C162.332 498.242 163.02 498.086 163.777 498.086C164.574 498.086 165.27 498.227 165.863 498.508C166.465 498.781 166.973 499.184 167.387 499.715C167.809 500.238 168.141 500.871 168.383 501.613C168.625 502.355 168.793 503.195 168.887 504.133V505.211C168.801 506.141 168.633 506.977 168.383 507.719C168.141 508.461 167.809 509.094 167.387 509.617C166.973 510.141 166.465 510.543 165.863 510.824C165.262 511.098 164.559 511.234 163.754 511.234C163.012 511.234 162.332 511.074 161.715 510.754C161.105 510.434 160.578 509.984 160.133 509.406C159.695 508.828 159.355 508.148 159.113 507.367C158.879 506.578 158.762 505.723 158.762 504.801ZM160.941 504.555V504.801C160.941 505.434 161.004 506.027 161.129 506.582C161.262 507.137 161.465 507.625 161.738 508.047C162.012 508.469 162.359 508.801 162.781 509.043C163.203 509.277 163.707 509.395 164.293 509.395C165.012 509.395 165.602 509.242 166.062 508.938C166.531 508.633 166.906 508.23 167.188 507.73C167.469 507.23 167.688 506.688 167.844 506.102V503.277C167.75 502.848 167.613 502.434 167.434 502.035C167.262 501.629 167.035 501.27 166.754 500.957C166.48 500.637 166.141 500.383 165.734 500.195C165.336 500.008 164.863 499.914 164.316 499.914C163.723 499.914 163.211 500.039 162.781 500.289C162.359 500.531 162.012 500.867 161.738 501.297C161.465 501.719 161.262 502.211 161.129 502.773C161.004 503.328 160.941 503.922 160.941 504.555ZM175.203 493V511H173.023V493H175.203ZM183.945 511.234C183.062 511.234 182.262 511.086 181.543 510.789C180.832 510.484 180.219 510.059 179.703 509.512C179.195 508.965 178.805 508.316 178.531 507.566C178.258 506.816 178.121 505.996 178.121 505.105V504.613C178.121 503.582 178.273 502.664 178.578 501.859C178.883 501.047 179.297 500.359 179.82 499.797C180.344 499.234 180.938 498.809 181.602 498.52C182.266 498.23 182.953 498.086 183.664 498.086C184.57 498.086 185.352 498.242 186.008 498.555C186.672 498.867 187.215 499.305 187.637 499.867C188.059 500.422 188.371 501.078 188.574 501.836C188.777 502.586 188.879 503.406 188.879 504.297V505.27H179.41V503.5H186.711V503.336C186.68 502.773 186.562 502.227 186.359 501.695C186.164 501.164 185.852 500.727 185.422 500.383C184.992 500.039 184.406 499.867 183.664 499.867C183.172 499.867 182.719 499.973 182.305 500.184C181.891 500.387 181.535 500.691 181.238 501.098C180.941 501.504 180.711 502 180.547 502.586C180.383 503.172 180.301 503.848 180.301 504.613V505.105C180.301 505.707 180.383 506.273 180.547 506.805C180.719 507.328 180.965 507.789 181.285 508.188C181.613 508.586 182.008 508.898 182.469 509.125C182.938 509.352 183.469 509.465 184.062 509.465C184.828 509.465 185.477 509.309 186.008 508.996C186.539 508.684 187.004 508.266 187.402 507.742L188.715 508.785C188.441 509.199 188.094 509.594 187.672 509.969C187.25 510.344 186.73 510.648 186.113 510.883C185.504 511.117 184.781 511.234 183.945 511.234ZM198.793 507.637C198.793 507.324 198.723 507.035 198.582 506.77C198.449 506.496 198.172 506.25 197.75 506.031C197.336 505.805 196.711 505.609 195.875 505.445C195.172 505.297 194.535 505.121 193.965 504.918C193.402 504.715 192.922 504.469 192.523 504.18C192.133 503.891 191.832 503.551 191.621 503.16C191.41 502.77 191.305 502.312 191.305 501.789C191.305 501.289 191.414 500.816 191.633 500.371C191.859 499.926 192.176 499.531 192.582 499.188C192.996 498.844 193.492 498.574 194.07 498.379C194.648 498.184 195.293 498.086 196.004 498.086C197.02 498.086 197.887 498.266 198.605 498.625C199.324 498.984 199.875 499.465 200.258 500.066C200.641 500.66 200.832 501.32 200.832 502.047H198.664C198.664 501.695 198.559 501.355 198.348 501.027C198.145 500.691 197.844 500.414 197.445 500.195C197.055 499.977 196.574 499.867 196.004 499.867C195.402 499.867 194.914 499.961 194.539 500.148C194.172 500.328 193.902 500.559 193.73 500.84C193.566 501.121 193.484 501.418 193.484 501.73C193.484 501.965 193.523 502.176 193.602 502.363C193.688 502.543 193.836 502.711 194.047 502.867C194.258 503.016 194.555 503.156 194.938 503.289C195.32 503.422 195.809 503.555 196.402 503.688C197.441 503.922 198.297 504.203 198.969 504.531C199.641 504.859 200.141 505.262 200.469 505.738C200.797 506.215 200.961 506.793 200.961 507.473C200.961 508.027 200.844 508.535 200.609 508.996C200.383 509.457 200.051 509.855 199.613 510.191C199.184 510.52 198.668 510.777 198.066 510.965C197.473 511.145 196.805 511.234 196.062 511.234C194.945 511.234 194 511.035 193.227 510.637C192.453 510.238 191.867 509.723 191.469 509.09C191.07 508.457 190.871 507.789 190.871 507.086H193.051C193.082 507.68 193.254 508.152 193.566 508.504C193.879 508.848 194.262 509.094 194.715 509.242C195.168 509.383 195.617 509.453 196.062 509.453C196.656 509.453 197.152 509.375 197.551 509.219C197.957 509.062 198.266 508.848 198.477 508.574C198.688 508.301 198.793 507.988 198.793 507.637ZM211.191 507.637C211.191 507.324 211.121 507.035 210.98 506.77C210.848 506.496 210.57 506.25 210.148 506.031C209.734 505.805 209.109 505.609 208.273 505.445C207.57 505.297 206.934 505.121 206.363 504.918C205.801 504.715 205.32 504.469 204.922 504.18C204.531 503.891 204.23 503.551 204.02 503.16C203.809 502.77 203.703 502.312 203.703 501.789C203.703 501.289 203.812 500.816 204.031 500.371C204.258 499.926 204.574 499.531 204.98 499.188C205.395 498.844 205.891 498.574 206.469 498.379C207.047 498.184 207.691 498.086 208.402 498.086C209.418 498.086 210.285 498.266 211.004 498.625C211.723 498.984 212.273 499.465 212.656 500.066C213.039 500.66 213.23 501.32 213.23 502.047H211.062C211.062 501.695 210.957 501.355 210.746 501.027C210.543 500.691 210.242 500.414 209.844 500.195C209.453 499.977 208.973 499.867 208.402 499.867C207.801 499.867 207.312 499.961 206.938 500.148C206.57 500.328 206.301 500.559 206.129 500.84C205.965 501.121 205.883 501.418 205.883 501.73C205.883 501.965 205.922 502.176 206 502.363C206.086 502.543 206.234 502.711 206.445 502.867C206.656 503.016 206.953 503.156 207.336 503.289C207.719 503.422 208.207 503.555 208.801 503.688C209.84 503.922 210.695 504.203 211.367 504.531C212.039 504.859 212.539 505.262 212.867 505.738C213.195 506.215 213.359 506.793 213.359 507.473C213.359 508.027 213.242 508.535 213.008 508.996C212.781 509.457 212.449 509.855 212.012 510.191C211.582 510.52 211.066 510.777 210.465 510.965C209.871 511.145 209.203 511.234 208.461 511.234C207.344 511.234 206.398 511.035 205.625 510.637C204.852 510.238 204.266 509.723 203.867 509.09C203.469 508.457 203.27 507.789 203.27 507.086H205.449C205.48 507.68 205.652 508.152 205.965 508.504C206.277 508.848 206.66 509.094 207.113 509.242C207.566 509.383 208.016 509.453 208.461 509.453C209.055 509.453 209.551 509.375 209.949 509.219C210.355 509.062 210.664 508.848 210.875 508.574C211.086 508.301 211.191 507.988 211.191 507.637ZM235.098 502.504V508.75C234.887 509.062 234.551 509.414 234.09 509.805C233.629 510.188 232.992 510.523 232.18 510.812C231.375 511.094 230.336 511.234 229.062 511.234C228.023 511.234 227.066 511.055 226.191 510.695C225.324 510.328 224.57 509.797 223.93 509.102C223.297 508.398 222.805 507.547 222.453 506.547C222.109 505.539 221.938 504.398 221.938 503.125V501.801C221.938 500.527 222.086 499.391 222.383 498.391C222.688 497.391 223.133 496.543 223.719 495.848C224.305 495.145 225.023 494.613 225.875 494.254C226.727 493.887 227.703 493.703 228.805 493.703C230.109 493.703 231.199 493.93 232.074 494.383C232.957 494.828 233.645 495.445 234.137 496.234C234.637 497.023 234.957 497.922 235.098 498.93H232.836C232.734 498.312 232.531 497.75 232.227 497.242C231.93 496.734 231.504 496.328 230.949 496.023C230.395 495.711 229.68 495.555 228.805 495.555C228.016 495.555 227.332 495.699 226.754 495.988C226.176 496.277 225.699 496.691 225.324 497.23C224.949 497.77 224.668 498.422 224.48 499.188C224.301 499.953 224.211 500.816 224.211 501.777V503.125C224.211 504.109 224.324 504.988 224.551 505.762C224.785 506.535 225.117 507.195 225.547 507.742C225.977 508.281 226.488 508.691 227.082 508.973C227.684 509.254 228.348 509.395 229.074 509.395C229.879 509.395 230.531 509.328 231.031 509.195C231.531 509.055 231.922 508.891 232.203 508.703C232.484 508.508 232.699 508.324 232.848 508.152V504.332H228.898V502.504H235.098ZM245.996 508.832V502.305C245.996 501.805 245.895 501.371 245.691 501.004C245.496 500.629 245.199 500.34 244.801 500.137C244.402 499.934 243.91 499.832 243.324 499.832C242.777 499.832 242.297 499.926 241.883 500.113C241.477 500.301 241.156 500.547 240.922 500.852C240.695 501.156 240.582 501.484 240.582 501.836H238.414C238.414 501.383 238.531 500.934 238.766 500.488C239 500.043 239.336 499.641 239.773 499.281C240.219 498.914 240.75 498.625 241.367 498.414C241.992 498.195 242.688 498.086 243.453 498.086C244.375 498.086 245.188 498.242 245.891 498.555C246.602 498.867 247.156 499.34 247.555 499.973C247.961 500.598 248.164 501.383 248.164 502.328V508.234C248.164 508.656 248.199 509.105 248.27 509.582C248.348 510.059 248.461 510.469 248.609 510.812V511H246.348C246.238 510.75 246.152 510.418 246.09 510.004C246.027 509.582 245.996 509.191 245.996 508.832ZM246.371 503.312L246.395 504.836H244.203C243.586 504.836 243.035 504.887 242.551 504.988C242.066 505.082 241.66 505.227 241.332 505.422C241.004 505.617 240.754 505.863 240.582 506.16C240.41 506.449 240.324 506.789 240.324 507.18C240.324 507.578 240.414 507.941 240.594 508.27C240.773 508.598 241.043 508.859 241.402 509.055C241.77 509.242 242.219 509.336 242.75 509.336C243.414 509.336 244 509.195 244.508 508.914C245.016 508.633 245.418 508.289 245.715 507.883C246.02 507.477 246.184 507.082 246.207 506.699L247.133 507.742C247.078 508.07 246.93 508.434 246.688 508.832C246.445 509.23 246.121 509.613 245.715 509.98C245.316 510.34 244.84 510.641 244.285 510.883C243.738 511.117 243.121 511.234 242.434 511.234C241.574 511.234 240.82 511.066 240.172 510.73C239.531 510.395 239.031 509.945 238.672 509.383C238.32 508.812 238.145 508.176 238.145 507.473C238.145 506.793 238.277 506.195 238.543 505.68C238.809 505.156 239.191 504.723 239.691 504.379C240.191 504.027 240.793 503.762 241.496 503.582C242.199 503.402 242.984 503.312 243.852 503.312H246.371ZM253.73 500.84V511H251.551V498.32H253.613L253.73 500.84ZM253.285 504.18L252.277 504.145C252.285 503.277 252.398 502.477 252.617 501.742C252.836 501 253.16 500.355 253.59 499.809C254.02 499.262 254.555 498.84 255.195 498.543C255.836 498.238 256.578 498.086 257.422 498.086C258.016 498.086 258.562 498.172 259.062 498.344C259.562 498.508 259.996 498.77 260.363 499.129C260.73 499.488 261.016 499.949 261.219 500.512C261.422 501.074 261.523 501.754 261.523 502.551V511H259.355V502.656C259.355 501.992 259.242 501.461 259.016 501.062C258.797 500.664 258.484 500.375 258.078 500.195C257.672 500.008 257.195 499.914 256.648 499.914C256.008 499.914 255.473 500.027 255.043 500.254C254.613 500.48 254.27 500.793 254.012 501.191C253.754 501.59 253.566 502.047 253.449 502.562C253.34 503.07 253.285 503.609 253.285 504.18ZM261.5 502.984L260.047 503.43C260.055 502.734 260.168 502.066 260.387 501.426C260.613 500.785 260.938 500.215 261.359 499.715C261.789 499.215 262.316 498.82 262.941 498.531C263.566 498.234 264.281 498.086 265.086 498.086C265.766 498.086 266.367 498.176 266.891 498.355C267.422 498.535 267.867 498.812 268.227 499.188C268.594 499.555 268.871 500.027 269.059 500.605C269.246 501.184 269.34 501.871 269.34 502.668V511H267.16V502.645C267.16 501.934 267.047 501.383 266.82 500.992C266.602 500.594 266.289 500.316 265.883 500.16C265.484 499.996 265.008 499.914 264.453 499.914C263.977 499.914 263.555 499.996 263.188 500.16C262.82 500.324 262.512 500.551 262.262 500.84C262.012 501.121 261.82 501.445 261.688 501.812C261.562 502.18 261.5 502.57 261.5 502.984ZM277.883 511.234C277 511.234 276.199 511.086 275.48 510.789C274.77 510.484 274.156 510.059 273.641 509.512C273.133 508.965 272.742 508.316 272.469 507.566C272.195 506.816 272.059 505.996 272.059 505.105V504.613C272.059 503.582 272.211 502.664 272.516 501.859C272.82 501.047 273.234 500.359 273.758 499.797C274.281 499.234 274.875 498.809 275.539 498.52C276.203 498.23 276.891 498.086 277.602 498.086C278.508 498.086 279.289 498.242 279.945 498.555C280.609 498.867 281.152 499.305 281.574 499.867C281.996 500.422 282.309 501.078 282.512 501.836C282.715 502.586 282.816 503.406 282.816 504.297V505.27H273.348V503.5H280.648V503.336C280.617 502.773 280.5 502.227 280.297 501.695C280.102 501.164 279.789 500.727 279.359 500.383C278.93 500.039 278.344 499.867 277.602 499.867C277.109 499.867 276.656 499.973 276.242 500.184C275.828 500.387 275.473 500.691 275.176 501.098C274.879 501.504 274.648 502 274.484 502.586C274.32 503.172 274.238 503.848 274.238 504.613V505.105C274.238 505.707 274.32 506.273 274.484 506.805C274.656 507.328 274.902 507.789 275.223 508.188C275.551 508.586 275.945 508.898 276.406 509.125C276.875 509.352 277.406 509.465 278 509.465C278.766 509.465 279.414 509.309 279.945 508.996C280.477 508.684 280.941 508.266 281.34 507.742L282.652 508.785C282.379 509.199 282.031 509.594 281.609 509.969C281.188 510.344 280.668 510.648 280.051 510.883C279.441 511.117 278.719 511.234 277.883 511.234ZM287.516 500.312V511H285.348V498.32H287.457L287.516 500.312ZM291.477 498.25L291.465 500.266C291.285 500.227 291.113 500.203 290.949 500.195C290.793 500.18 290.613 500.172 290.41 500.172C289.91 500.172 289.469 500.25 289.086 500.406C288.703 500.562 288.379 500.781 288.113 501.062C287.848 501.344 287.637 501.68 287.48 502.07C287.332 502.453 287.234 502.875 287.188 503.336L286.578 503.688C286.578 502.922 286.652 502.203 286.801 501.531C286.957 500.859 287.195 500.266 287.516 499.75C287.836 499.227 288.242 498.82 288.734 498.531C289.234 498.234 289.828 498.086 290.516 498.086C290.672 498.086 290.852 498.105 291.055 498.145C291.258 498.176 291.398 498.211 291.477 498.25ZM300.863 507.637C300.863 507.324 300.793 507.035 300.652 506.77C300.52 506.496 300.242 506.25 299.82 506.031C299.406 505.805 298.781 505.609 297.945 505.445C297.242 505.297 296.605 505.121 296.035 504.918C295.473 504.715 294.992 504.469 294.594 504.18C294.203 503.891 293.902 503.551 293.691 503.16C293.48 502.77 293.375 502.312 293.375 501.789C293.375 501.289 293.484 500.816 293.703 500.371C293.93 499.926 294.246 499.531 294.652 499.188C295.066 498.844 295.562 498.574 296.141 498.379C296.719 498.184 297.363 498.086 298.074 498.086C299.09 498.086 299.957 498.266 300.676 498.625C301.395 498.984 301.945 499.465 302.328 500.066C302.711 500.66 302.902 501.32 302.902 502.047H300.734C300.734 501.695 300.629 501.355 300.418 501.027C300.215 500.691 299.914 500.414 299.516 500.195C299.125 499.977 298.645 499.867 298.074 499.867C297.473 499.867 296.984 499.961 296.609 500.148C296.242 500.328 295.973 500.559 295.801 500.84C295.637 501.121 295.555 501.418 295.555 501.73C295.555 501.965 295.594 502.176 295.672 502.363C295.758 502.543 295.906 502.711 296.117 502.867C296.328 503.016 296.625 503.156 297.008 503.289C297.391 503.422 297.879 503.555 298.473 503.688C299.512 503.922 300.367 504.203 301.039 504.531C301.711 504.859 302.211 505.262 302.539 505.738C302.867 506.215 303.031 506.793 303.031 507.473C303.031 508.027 302.914 508.535 302.68 508.996C302.453 509.457 302.121 509.855 301.684 510.191C301.254 510.52 300.738 510.777 300.137 510.965C299.543 511.145 298.875 511.234 298.133 511.234C297.016 511.234 296.07 511.035 295.297 510.637C294.523 510.238 293.938 509.723 293.539 509.09C293.141 508.457 292.941 507.789 292.941 507.086H295.121C295.152 507.68 295.324 508.152 295.637 508.504C295.949 508.848 296.332 509.094 296.785 509.242C297.238 509.383 297.688 509.453 298.133 509.453C298.727 509.453 299.223 509.375 299.621 509.219C300.027 509.062 300.336 508.848 300.547 508.574C300.758 508.301 300.863 507.988 300.863 507.637ZM114.828 553.16V555H106.297V553.16H114.828ZM106.742 537.938V555H104.48V537.938H106.742ZM122.352 555.234C121.469 555.234 120.668 555.086 119.949 554.789C119.238 554.484 118.625 554.059 118.109 553.512C117.602 552.965 117.211 552.316 116.938 551.566C116.664 550.816 116.527 549.996 116.527 549.105V548.613C116.527 547.582 116.68 546.664 116.984 545.859C117.289 545.047 117.703 544.359 118.227 543.797C118.75 543.234 119.344 542.809 120.008 542.52C120.672 542.23 121.359 542.086 122.07 542.086C122.977 542.086 123.758 542.242 124.414 542.555C125.078 542.867 125.621 543.305 126.043 543.867C126.465 544.422 126.777 545.078 126.98 545.836C127.184 546.586 127.285 547.406 127.285 548.297V549.27H117.816V547.5H125.117V547.336C125.086 546.773 124.969 546.227 124.766 545.695C124.57 545.164 124.258 544.727 123.828 544.383C123.398 544.039 122.812 543.867 122.07 543.867C121.578 543.867 121.125 543.973 120.711 544.184C120.297 544.387 119.941 544.691 119.645 545.098C119.348 545.504 119.117 546 118.953 546.586C118.789 547.172 118.707 547.848 118.707 548.613V549.105C118.707 549.707 118.789 550.273 118.953 550.805C119.125 551.328 119.371 551.789 119.691 552.188C120.02 552.586 120.414 552.898 120.875 553.125C121.344 553.352 121.875 553.465 122.469 553.465C123.234 553.465 123.883 553.309 124.414 552.996C124.945 552.684 125.41 552.266 125.809 551.742L127.121 552.785C126.848 553.199 126.5 553.594 126.078 553.969C125.656 554.344 125.137 554.648 124.52 554.883C123.91 555.117 123.188 555.234 122.352 555.234ZM138.031 542.32H140V554.73C140 555.848 139.773 556.801 139.32 557.59C138.867 558.379 138.234 558.977 137.422 559.383C136.617 559.797 135.688 560.004 134.633 560.004C134.195 560.004 133.68 559.934 133.086 559.793C132.5 559.66 131.922 559.43 131.352 559.102C130.789 558.781 130.316 558.348 129.934 557.801L131.07 556.512C131.602 557.152 132.156 557.598 132.734 557.848C133.32 558.098 133.898 558.223 134.469 558.223C135.156 558.223 135.75 558.094 136.25 557.836C136.75 557.578 137.137 557.195 137.41 556.688C137.691 556.188 137.832 555.57 137.832 554.836V545.109L138.031 542.32ZM129.301 548.801V548.555C129.301 547.586 129.414 546.707 129.641 545.918C129.875 545.121 130.207 544.438 130.637 543.867C131.074 543.297 131.602 542.859 132.219 542.555C132.836 542.242 133.531 542.086 134.305 542.086C135.102 542.086 135.797 542.227 136.391 542.508C136.992 542.781 137.5 543.184 137.914 543.715C138.336 544.238 138.668 544.871 138.91 545.613C139.152 546.355 139.32 547.195 139.414 548.133V549.211C139.328 550.141 139.16 550.977 138.91 551.719C138.668 552.461 138.336 553.094 137.914 553.617C137.5 554.141 136.992 554.543 136.391 554.824C135.789 555.098 135.086 555.234 134.281 555.234C133.523 555.234 132.836 555.074 132.219 554.754C131.609 554.434 131.086 553.984 130.648 553.406C130.211 552.828 129.875 552.148 129.641 551.367C129.414 550.578 129.301 549.723 129.301 548.801ZM131.469 548.555V548.801C131.469 549.434 131.531 550.027 131.656 550.582C131.789 551.137 131.988 551.625 132.254 552.047C132.527 552.469 132.875 552.801 133.297 553.043C133.719 553.277 134.223 553.395 134.809 553.395C135.527 553.395 136.121 553.242 136.59 552.938C137.059 552.633 137.43 552.23 137.703 551.73C137.984 551.23 138.203 550.688 138.359 550.102V547.277C138.273 546.848 138.141 546.434 137.961 546.035C137.789 545.629 137.562 545.27 137.281 544.957C137.008 544.637 136.668 544.383 136.262 544.195C135.855 544.008 135.379 543.914 134.832 543.914C134.238 543.914 133.727 544.039 133.297 544.289C132.875 544.531 132.527 544.867 132.254 545.297C131.988 545.719 131.789 546.211 131.656 546.773C131.531 547.328 131.469 547.922 131.469 548.555ZM150.77 552.832V546.305C150.77 545.805 150.668 545.371 150.465 545.004C150.27 544.629 149.973 544.34 149.574 544.137C149.176 543.934 148.684 543.832 148.098 543.832C147.551 543.832 147.07 543.926 146.656 544.113C146.25 544.301 145.93 544.547 145.695 544.852C145.469 545.156 145.355 545.484 145.355 545.836H143.188C143.188 545.383 143.305 544.934 143.539 544.488C143.773 544.043 144.109 543.641 144.547 543.281C144.992 542.914 145.523 542.625 146.141 542.414C146.766 542.195 147.461 542.086 148.227 542.086C149.148 542.086 149.961 542.242 150.664 542.555C151.375 542.867 151.93 543.34 152.328 543.973C152.734 544.598 152.938 545.383 152.938 546.328V552.234C152.938 552.656 152.973 553.105 153.043 553.582C153.121 554.059 153.234 554.469 153.383 554.812V555H151.121C151.012 554.75 150.926 554.418 150.863 554.004C150.801 553.582 150.77 553.191 150.77 552.832ZM151.145 547.312L151.168 548.836H148.977C148.359 548.836 147.809 548.887 147.324 548.988C146.84 549.082 146.434 549.227 146.105 549.422C145.777 549.617 145.527 549.863 145.355 550.16C145.184 550.449 145.098 550.789 145.098 551.18C145.098 551.578 145.188 551.941 145.367 552.27C145.547 552.598 145.816 552.859 146.176 553.055C146.543 553.242 146.992 553.336 147.523 553.336C148.188 553.336 148.773 553.195 149.281 552.914C149.789 552.633 150.191 552.289 150.488 551.883C150.793 551.477 150.957 551.082 150.98 550.699L151.906 551.742C151.852 552.07 151.703 552.434 151.461 552.832C151.219 553.23 150.895 553.613 150.488 553.98C150.09 554.34 149.613 554.641 149.059 554.883C148.512 555.117 147.895 555.234 147.207 555.234C146.348 555.234 145.594 555.066 144.945 554.73C144.305 554.395 143.805 553.945 143.445 553.383C143.094 552.812 142.918 552.176 142.918 551.473C142.918 550.793 143.051 550.195 143.316 549.68C143.582 549.156 143.965 548.723 144.465 548.379C144.965 548.027 145.566 547.762 146.27 547.582C146.973 547.402 147.758 547.312 148.625 547.312H151.145ZM158.703 537V555H156.523V537H158.703ZM110.773 592.309H106.215V590.469H110.773C111.656 590.469 112.371 590.328 112.918 590.047C113.465 589.766 113.863 589.375 114.113 588.875C114.371 588.375 114.5 587.805 114.5 587.164C114.5 586.578 114.371 586.027 114.113 585.512C113.863 584.996 113.465 584.582 112.918 584.27C112.371 583.949 111.656 583.789 110.773 583.789H106.742V599H104.48V581.938H110.773C112.062 581.938 113.152 582.16 114.043 582.605C114.934 583.051 115.609 583.668 116.07 584.457C116.531 585.238 116.762 586.133 116.762 587.141C116.762 588.234 116.531 589.168 116.07 589.941C115.609 590.715 114.934 591.305 114.043 591.711C113.152 592.109 112.062 592.309 110.773 592.309ZM121.461 588.312V599H119.293V586.32H121.402L121.461 588.312ZM125.422 586.25L125.41 588.266C125.23 588.227 125.059 588.203 124.895 588.195C124.738 588.18 124.559 588.172 124.355 588.172C123.855 588.172 123.414 588.25 123.031 588.406C122.648 588.562 122.324 588.781 122.059 589.062C121.793 589.344 121.582 589.68 121.426 590.07C121.277 590.453 121.18 590.875 121.133 591.336L120.523 591.688C120.523 590.922 120.598 590.203 120.746 589.531C120.902 588.859 121.141 588.266 121.461 587.75C121.781 587.227 122.188 586.82 122.68 586.531C123.18 586.234 123.773 586.086 124.461 586.086C124.617 586.086 124.797 586.105 125 586.145C125.203 586.176 125.344 586.211 125.422 586.25ZM132.453 599.234C131.57 599.234 130.77 599.086 130.051 598.789C129.34 598.484 128.727 598.059 128.211 597.512C127.703 596.965 127.312 596.316 127.039 595.566C126.766 594.816 126.629 593.996 126.629 593.105V592.613C126.629 591.582 126.781 590.664 127.086 589.859C127.391 589.047 127.805 588.359 128.328 587.797C128.852 587.234 129.445 586.809 130.109 586.52C130.773 586.23 131.461 586.086 132.172 586.086C133.078 586.086 133.859 586.242 134.516 586.555C135.18 586.867 135.723 587.305 136.145 587.867C136.566 588.422 136.879 589.078 137.082 589.836C137.285 590.586 137.387 591.406 137.387 592.297V593.27H127.918V591.5H135.219V591.336C135.188 590.773 135.07 590.227 134.867 589.695C134.672 589.164 134.359 588.727 133.93 588.383C133.5 588.039 132.914 587.867 132.172 587.867C131.68 587.867 131.227 587.973 130.812 588.184C130.398 588.387 130.043 588.691 129.746 589.098C129.449 589.504 129.219 590 129.055 590.586C128.891 591.172 128.809 591.848 128.809 592.613V593.105C128.809 593.707 128.891 594.273 129.055 594.805C129.227 595.328 129.473 595.789 129.793 596.188C130.121 596.586 130.516 596.898 130.977 597.125C131.445 597.352 131.977 597.465 132.57 597.465C133.336 597.465 133.984 597.309 134.516 596.996C135.047 596.684 135.512 596.266 135.91 595.742L137.223 596.785C136.949 597.199 136.602 597.594 136.18 597.969C135.758 598.344 135.238 598.648 134.621 598.883C134.012 599.117 133.289 599.234 132.453 599.234ZM147.301 595.637C147.301 595.324 147.23 595.035 147.09 594.77C146.957 594.496 146.68 594.25 146.258 594.031C145.844 593.805 145.219 593.609 144.383 593.445C143.68 593.297 143.043 593.121 142.473 592.918C141.91 592.715 141.43 592.469 141.031 592.18C140.641 591.891 140.34 591.551 140.129 591.16C139.918 590.77 139.812 590.312 139.812 589.789C139.812 589.289 139.922 588.816 140.141 588.371C140.367 587.926 140.684 587.531 141.09 587.188C141.504 586.844 142 586.574 142.578 586.379C143.156 586.184 143.801 586.086 144.512 586.086C145.527 586.086 146.395 586.266 147.113 586.625C147.832 586.984 148.383 587.465 148.766 588.066C149.148 588.66 149.34 589.32 149.34 590.047H147.172C147.172 589.695 147.066 589.355 146.855 589.027C146.652 588.691 146.352 588.414 145.953 588.195C145.562 587.977 145.082 587.867 144.512 587.867C143.91 587.867 143.422 587.961 143.047 588.148C142.68 588.328 142.41 588.559 142.238 588.84C142.074 589.121 141.992 589.418 141.992 589.73C141.992 589.965 142.031 590.176 142.109 590.363C142.195 590.543 142.344 590.711 142.555 590.867C142.766 591.016 143.062 591.156 143.445 591.289C143.828 591.422 144.316 591.555 144.91 591.688C145.949 591.922 146.805 592.203 147.477 592.531C148.148 592.859 148.648 593.262 148.977 593.738C149.305 594.215 149.469 594.793 149.469 595.473C149.469 596.027 149.352 596.535 149.117 596.996C148.891 597.457 148.559 597.855 148.121 598.191C147.691 598.52 147.176 598.777 146.574 598.965C145.98 599.145 145.312 599.234 144.57 599.234C143.453 599.234 142.508 599.035 141.734 598.637C140.961 598.238 140.375 597.723 139.977 597.09C139.578 596.457 139.379 595.789 139.379 595.086H141.559C141.59 595.68 141.762 596.152 142.074 596.504C142.387 596.848 142.77 597.094 143.223 597.242C143.676 597.383 144.125 597.453 144.57 597.453C145.164 597.453 145.66 597.375 146.059 597.219C146.465 597.062 146.773 596.848 146.984 596.574C147.195 596.301 147.301 595.988 147.301 595.637ZM159.699 595.637C159.699 595.324 159.629 595.035 159.488 594.77C159.355 594.496 159.078 594.25 158.656 594.031C158.242 593.805 157.617 593.609 156.781 593.445C156.078 593.297 155.441 593.121 154.871 592.918C154.309 592.715 153.828 592.469 153.43 592.18C153.039 591.891 152.738 591.551 152.527 591.16C152.316 590.77 152.211 590.312 152.211 589.789C152.211 589.289 152.32 588.816 152.539 588.371C152.766 587.926 153.082 587.531 153.488 587.188C153.902 586.844 154.398 586.574 154.977 586.379C155.555 586.184 156.199 586.086 156.91 586.086C157.926 586.086 158.793 586.266 159.512 586.625C160.23 586.984 160.781 587.465 161.164 588.066C161.547 588.66 161.738 589.32 161.738 590.047H159.57C159.57 589.695 159.465 589.355 159.254 589.027C159.051 588.691 158.75 588.414 158.352 588.195C157.961 587.977 157.48 587.867 156.91 587.867C156.309 587.867 155.82 587.961 155.445 588.148C155.078 588.328 154.809 588.559 154.637 588.84C154.473 589.121 154.391 589.418 154.391 589.73C154.391 589.965 154.43 590.176 154.508 590.363C154.594 590.543 154.742 590.711 154.953 590.867C155.164 591.016 155.461 591.156 155.844 591.289C156.227 591.422 156.715 591.555 157.309 591.688C158.348 591.922 159.203 592.203 159.875 592.531C160.547 592.859 161.047 593.262 161.375 593.738C161.703 594.215 161.867 594.793 161.867 595.473C161.867 596.027 161.75 596.535 161.516 596.996C161.289 597.457 160.957 597.855 160.52 598.191C160.09 598.52 159.574 598.777 158.973 598.965C158.379 599.145 157.711 599.234 156.969 599.234C155.852 599.234 154.906 599.035 154.133 598.637C153.359 598.238 152.773 597.723 152.375 597.09C151.977 596.457 151.777 595.789 151.777 595.086H153.957C153.988 595.68 154.16 596.152 154.473 596.504C154.785 596.848 155.168 597.094 155.621 597.242C156.074 597.383 156.523 597.453 156.969 597.453C157.562 597.453 158.059 597.375 158.457 597.219C158.863 597.062 159.172 596.848 159.383 596.574C159.594 596.301 159.699 595.988 159.699 595.637ZM166.895 581V599H164.715V581H166.895ZM174.641 586.32L169.109 592.238L166.016 595.449L165.84 593.141L168.055 590.492L171.992 586.32H174.641ZM172.66 599L168.137 592.953L169.262 591.02L175.215 599H172.66ZM179.234 586.32V599H177.055V586.32H179.234ZM176.891 582.957C176.891 582.605 176.996 582.309 177.207 582.066C177.426 581.824 177.746 581.703 178.168 581.703C178.582 581.703 178.898 581.824 179.117 582.066C179.344 582.309 179.457 582.605 179.457 582.957C179.457 583.293 179.344 583.582 179.117 583.824C178.898 584.059 178.582 584.176 178.168 584.176C177.746 584.176 177.426 584.059 177.207 583.824C176.996 583.582 176.891 583.293 176.891 582.957ZM188.023 586.32V587.984H181.168V586.32H188.023ZM183.488 583.238H185.656V595.859C185.656 596.289 185.723 596.613 185.855 596.832C185.988 597.051 186.16 597.195 186.371 597.266C186.582 597.336 186.809 597.371 187.051 597.371C187.23 597.371 187.418 597.355 187.613 597.324C187.816 597.285 187.969 597.254 188.07 597.23L188.082 599C187.91 599.055 187.684 599.105 187.402 599.152C187.129 599.207 186.797 599.234 186.406 599.234C185.875 599.234 185.387 599.129 184.941 598.918C184.496 598.707 184.141 598.355 183.875 597.863C183.617 597.363 183.488 596.691 183.488 595.848V583.238ZM110.773 636.309H106.215V634.469H110.773C111.656 634.469 112.371 634.328 112.918 634.047C113.465 633.766 113.863 633.375 114.113 632.875C114.371 632.375 114.5 631.805 114.5 631.164C114.5 630.578 114.371 630.027 114.113 629.512C113.863 628.996 113.465 628.582 112.918 628.27C112.371 627.949 111.656 627.789 110.773 627.789H106.742V643H104.48V625.938H110.773C112.062 625.938 113.152 626.16 114.043 626.605C114.934 627.051 115.609 627.668 116.07 628.457C116.531 629.238 116.762 630.133 116.762 631.141C116.762 632.234 116.531 633.168 116.07 633.941C115.609 634.715 114.934 635.305 114.043 635.711C113.152 636.109 112.062 636.309 110.773 636.309ZM121.461 632.312V643H119.293V630.32H121.402L121.461 632.312ZM125.422 630.25L125.41 632.266C125.23 632.227 125.059 632.203 124.895 632.195C124.738 632.18 124.559 632.172 124.355 632.172C123.855 632.172 123.414 632.25 123.031 632.406C122.648 632.562 122.324 632.781 122.059 633.062C121.793 633.344 121.582 633.68 121.426 634.07C121.277 634.453 121.18 634.875 121.133 635.336L120.523 635.688C120.523 634.922 120.598 634.203 120.746 633.531C120.902 632.859 121.141 632.266 121.461 631.75C121.781 631.227 122.188 630.82 122.68 630.531C123.18 630.234 123.773 630.086 124.461 630.086C124.617 630.086 124.797 630.105 125 630.145C125.203 630.176 125.344 630.211 125.422 630.25ZM129.781 630.32V643H127.602V630.32H129.781ZM127.438 626.957C127.438 626.605 127.543 626.309 127.754 626.066C127.973 625.824 128.293 625.703 128.715 625.703C129.129 625.703 129.445 625.824 129.664 626.066C129.891 626.309 130.004 626.605 130.004 626.957C130.004 627.293 129.891 627.582 129.664 627.824C129.445 628.059 129.129 628.176 128.715 628.176C128.293 628.176 127.973 628.059 127.754 627.824C127.543 627.582 127.438 627.293 127.438 626.957ZM137.117 641.043L140.586 630.32H142.801L138.242 643H136.789L137.117 641.043ZM134.223 630.32L137.797 641.102L138.043 643H136.59L131.996 630.32H134.223ZM152.176 640.832V634.305C152.176 633.805 152.074 633.371 151.871 633.004C151.676 632.629 151.379 632.34 150.98 632.137C150.582 631.934 150.09 631.832 149.504 631.832C148.957 631.832 148.477 631.926 148.062 632.113C147.656 632.301 147.336 632.547 147.102 632.852C146.875 633.156 146.762 633.484 146.762 633.836H144.594C144.594 633.383 144.711 632.934 144.945 632.488C145.18 632.043 145.516 631.641 145.953 631.281C146.398 630.914 146.93 630.625 147.547 630.414C148.172 630.195 148.867 630.086 149.633 630.086C150.555 630.086 151.367 630.242 152.07 630.555C152.781 630.867 153.336 631.34 153.734 631.973C154.141 632.598 154.344 633.383 154.344 634.328V640.234C154.344 640.656 154.379 641.105 154.449 641.582C154.527 642.059 154.641 642.469 154.789 642.812V643H152.527C152.418 642.75 152.332 642.418 152.27 642.004C152.207 641.582 152.176 641.191 152.176 640.832ZM152.551 635.312L152.574 636.836H150.383C149.766 636.836 149.215 636.887 148.73 636.988C148.246 637.082 147.84 637.227 147.512 637.422C147.184 637.617 146.934 637.863 146.762 638.16C146.59 638.449 146.504 638.789 146.504 639.18C146.504 639.578 146.594 639.941 146.773 640.27C146.953 640.598 147.223 640.859 147.582 641.055C147.949 641.242 148.398 641.336 148.93 641.336C149.594 641.336 150.18 641.195 150.688 640.914C151.195 640.633 151.598 640.289 151.895 639.883C152.199 639.477 152.363 639.082 152.387 638.699L153.312 639.742C153.258 640.07 153.109 640.434 152.867 640.832C152.625 641.23 152.301 641.613 151.895 641.98C151.496 642.34 151.02 642.641 150.465 642.883C149.918 643.117 149.301 643.234 148.613 643.234C147.754 643.234 147 643.066 146.352 642.73C145.711 642.395 145.211 641.945 144.852 641.383C144.5 640.812 144.324 640.176 144.324 639.473C144.324 638.793 144.457 638.195 144.723 637.68C144.988 637.156 145.371 636.723 145.871 636.379C146.371 636.027 146.973 635.762 147.676 635.582C148.379 635.402 149.164 635.312 150.031 635.312H152.551ZM162.828 641.453C163.344 641.453 163.82 641.348 164.258 641.137C164.695 640.926 165.055 640.637 165.336 640.27C165.617 639.895 165.777 639.469 165.816 638.992H167.879C167.84 639.742 167.586 640.441 167.117 641.09C166.656 641.73 166.051 642.25 165.301 642.648C164.551 643.039 163.727 643.234 162.828 643.234C161.875 643.234 161.043 643.066 160.332 642.73C159.629 642.395 159.043 641.934 158.574 641.348C158.113 640.762 157.766 640.09 157.531 639.332C157.305 638.566 157.191 637.758 157.191 636.906V636.414C157.191 635.562 157.305 634.758 157.531 634C157.766 633.234 158.113 632.559 158.574 631.973C159.043 631.387 159.629 630.926 160.332 630.59C161.043 630.254 161.875 630.086 162.828 630.086C163.82 630.086 164.688 630.289 165.43 630.695C166.172 631.094 166.754 631.641 167.176 632.336C167.605 633.023 167.84 633.805 167.879 634.68H165.816C165.777 634.156 165.629 633.684 165.371 633.262C165.121 632.84 164.777 632.504 164.34 632.254C163.91 631.996 163.406 631.867 162.828 631.867C162.164 631.867 161.605 632 161.152 632.266C160.707 632.523 160.352 632.875 160.086 633.32C159.828 633.758 159.641 634.246 159.523 634.785C159.414 635.316 159.359 635.859 159.359 636.414V636.906C159.359 637.461 159.414 638.008 159.523 638.547C159.633 639.086 159.816 639.574 160.074 640.012C160.34 640.449 160.695 640.801 161.141 641.066C161.594 641.324 162.156 641.453 162.828 641.453ZM173.879 641.688L177.406 630.32H179.727L174.641 644.957C174.523 645.27 174.367 645.605 174.172 645.965C173.984 646.332 173.742 646.68 173.445 647.008C173.148 647.336 172.789 647.602 172.367 647.805C171.953 648.016 171.457 648.121 170.879 648.121C170.707 648.121 170.488 648.098 170.223 648.051C169.957 648.004 169.77 647.965 169.66 647.934L169.648 646.176C169.711 646.184 169.809 646.191 169.941 646.199C170.082 646.215 170.18 646.223 170.234 646.223C170.727 646.223 171.145 646.156 171.488 646.023C171.832 645.898 172.121 645.684 172.355 645.379C172.598 645.082 172.805 644.672 172.977 644.148L173.879 641.688ZM171.289 630.32L174.582 640.164L175.145 642.449L173.586 643.246L168.922 630.32H171.289ZM194.258 636.309H189.699V634.469H194.258C195.141 634.469 195.855 634.328 196.402 634.047C196.949 633.766 197.348 633.375 197.598 632.875C197.855 632.375 197.984 631.805 197.984 631.164C197.984 630.578 197.855 630.027 197.598 629.512C197.348 628.996 196.949 628.582 196.402 628.27C195.855 627.949 195.141 627.789 194.258 627.789H190.227V643H187.965V625.938H194.258C195.547 625.938 196.637 626.16 197.527 626.605C198.418 627.051 199.094 627.668 199.555 628.457C200.016 629.238 200.246 630.133 200.246 631.141C200.246 632.234 200.016 633.168 199.555 633.941C199.094 634.715 198.418 635.305 197.527 635.711C196.637 636.109 195.547 636.309 194.258 636.309ZM202.039 636.801V636.531C202.039 635.617 202.172 634.77 202.438 633.988C202.703 633.199 203.086 632.516 203.586 631.938C204.086 631.352 204.691 630.898 205.402 630.578C206.113 630.25 206.91 630.086 207.793 630.086C208.684 630.086 209.484 630.25 210.195 630.578C210.914 630.898 211.523 631.352 212.023 631.938C212.531 632.516 212.918 633.199 213.184 633.988C213.449 634.77 213.582 635.617 213.582 636.531V636.801C213.582 637.715 213.449 638.562 213.184 639.344C212.918 640.125 212.531 640.809 212.023 641.395C211.523 641.973 210.918 642.426 210.207 642.754C209.504 643.074 208.707 643.234 207.816 643.234C206.926 643.234 206.125 643.074 205.414 642.754C204.703 642.426 204.094 641.973 203.586 641.395C203.086 640.809 202.703 640.125 202.438 639.344C202.172 638.562 202.039 637.715 202.039 636.801ZM204.207 636.531V636.801C204.207 637.434 204.281 638.031 204.43 638.594C204.578 639.148 204.801 639.641 205.098 640.07C205.402 640.5 205.781 640.84 206.234 641.09C206.688 641.332 207.215 641.453 207.816 641.453C208.41 641.453 208.93 641.332 209.375 641.09C209.828 640.84 210.203 640.5 210.5 640.07C210.797 639.641 211.02 639.148 211.168 638.594C211.324 638.031 211.402 637.434 211.402 636.801V636.531C211.402 635.906 211.324 635.316 211.168 634.762C211.02 634.199 210.793 633.703 210.488 633.273C210.191 632.836 209.816 632.492 209.363 632.242C208.918 631.992 208.395 631.867 207.793 631.867C207.199 631.867 206.676 631.992 206.223 632.242C205.777 632.492 205.402 632.836 205.098 633.273C204.801 633.703 204.578 634.199 204.43 634.762C204.281 635.316 204.207 635.906 204.207 636.531ZM218.656 625V643H216.477V625H218.656ZM224.492 630.32V643H222.312V630.32H224.492ZM222.148 626.957C222.148 626.605 222.254 626.309 222.465 626.066C222.684 625.824 223.004 625.703 223.426 625.703C223.84 625.703 224.156 625.824 224.375 626.066C224.602 626.309 224.715 626.605 224.715 626.957C224.715 627.293 224.602 627.582 224.375 627.824C224.156 628.059 223.84 628.176 223.426 628.176C223.004 628.176 222.684 628.059 222.465 627.824C222.254 627.582 222.148 627.293 222.148 626.957ZM233.047 641.453C233.562 641.453 234.039 641.348 234.477 641.137C234.914 640.926 235.273 640.637 235.555 640.27C235.836 639.895 235.996 639.469 236.035 638.992H238.098C238.059 639.742 237.805 640.441 237.336 641.09C236.875 641.73 236.27 642.25 235.52 642.648C234.77 643.039 233.945 643.234 233.047 643.234C232.094 643.234 231.262 643.066 230.551 642.73C229.848 642.395 229.262 641.934 228.793 641.348C228.332 640.762 227.984 640.09 227.75 639.332C227.523 638.566 227.41 637.758 227.41 636.906V636.414C227.41 635.562 227.523 634.758 227.75 634C227.984 633.234 228.332 632.559 228.793 631.973C229.262 631.387 229.848 630.926 230.551 630.59C231.262 630.254 232.094 630.086 233.047 630.086C234.039 630.086 234.906 630.289 235.648 630.695C236.391 631.094 236.973 631.641 237.395 632.336C237.824 633.023 238.059 633.805 238.098 634.68H236.035C235.996 634.156 235.848 633.684 235.59 633.262C235.34 632.84 234.996 632.504 234.559 632.254C234.129 631.996 233.625 631.867 233.047 631.867C232.383 631.867 231.824 632 231.371 632.266C230.926 632.523 230.57 632.875 230.305 633.32C230.047 633.758 229.859 634.246 229.742 634.785C229.633 635.316 229.578 635.859 229.578 636.414V636.906C229.578 637.461 229.633 638.008 229.742 638.547C229.852 639.086 230.035 639.574 230.293 640.012C230.559 640.449 230.914 640.801 231.359 641.066C231.812 641.324 232.375 641.453 233.047 641.453ZM244.098 641.688L247.625 630.32H249.945L244.859 644.957C244.742 645.27 244.586 645.605 244.391 645.965C244.203 646.332 243.961 646.68 243.664 647.008C243.367 647.336 243.008 647.602 242.586 647.805C242.172 648.016 241.676 648.121 241.098 648.121C240.926 648.121 240.707 648.098 240.441 648.051C240.176 648.004 239.988 647.965 239.879 647.934L239.867 646.176C239.93 646.184 240.027 646.191 240.16 646.199C240.301 646.215 240.398 646.223 240.453 646.223C240.945 646.223 241.363 646.156 241.707 646.023C242.051 645.898 242.34 645.684 242.574 645.379C242.816 645.082 243.023 644.672 243.195 644.148L244.098 641.688ZM241.508 630.32L244.801 640.164L245.363 642.449L243.805 643.246L239.141 630.32H241.508Z" fill="white"/>
<path d="M879.5 523C895.46 517.68 919.34 509.72 944.08 506.34C968.775 502.966 990.06 505.64 1010.76 514.3C1029.12 521.981 1056.7 516.36 1078.76 507.04C1109.98 499 1155.42 501.64 1175.42 509.64C1180.78 511 1186.06 511 1199.5 507" stroke="white" stroke-width="2" stroke-linecap="round"/>
<path d="M947.5 567C951.42 564.36 975.42 559 995.4 555.68C1030.98 549.768 1047.42 564.28 1066.08 573.64C1081.98 575 1095.46 573.68 1110.04 571.68C1120.66 571 1137.82 571 1155.5 571" stroke="white" stroke-width="2" stroke-linecap="round"/>
<path d="M927.5 615C992.42 611 1083.42 608.36 1116.04 607.66C1123.46 608.32 1127.42 609.64 1136.72 610.32C1146.02 611 1160.54 611 1175.5 611" stroke="white" stroke-width="2" stroke-linecap="round"/>
<defs>
<linearGradient id="paint0_linear_898_14" x1="720" y1="70.5" x2="720" y2="770.5" gradientUnits="userSpaceOnUse">
<stop stop-color="#6386D0"/>
<stop offset="1" stop-color="#58287E"/>
</linearGradient>
</defs>
</svg>