<svg width="236" height="281" viewBox="0 0 236 281" fill="none" xmlns="http://www.w3.org/2000/svg">
<path d="M72.7002 255.9H206.66L220.45 270.8" stroke="#FF6FFF" stroke-width="3" stroke-miterlimit="10"/>
<path d="M23.4802 245.94C23.3902 239.64 33.2902 239.64 33.1902 245.94C33.2802 252.24 23.3802 252.24 23.4802 245.94Z" stroke="#FF6FFF" stroke-width="3" stroke-miterlimit="10"/>
<path d="M154.38 256.28H72.4298L62.7598 245.75H144.71L154.38 256.28Z" fill="#FF6FFF"/>
<path d="M168.26 256.28H159.6L149.93 245.75H158.59L168.26 256.28Z" fill="#FF6FFF"/>
<path d="M181.55 256.28H172.89L163.22 245.75H171.88L181.55 256.28Z" fill="#FF6FFF"/>
<path d="M10.6396 28.4102L17.9196 35.6902V135.9L28.3396 148.41V241.14" stroke="#FF6FFF" stroke-width="3" stroke-miterlimit="10"/>
<path d="M27.3502 214.03V148.05L16.4102 135.58V201.55L27.3502 214.03Z" fill="#FF6FFF"/>
<path d="M27.1404 225.19V218.23L16.1904 205.75V212.72L27.1404 225.19Z" fill="#FF6FFF"/>
<path d="M27.1404 235.89V228.92L16.1904 216.45V223.41L27.1404 235.89Z" fill="#FF6FFF"/>
<path d="M218.88 274.13C218.79 267.83 228.69 267.83 228.59 274.13C228.68 280.43 218.78 280.43 218.88 274.13Z" stroke="#FF6FFF" stroke-width="3" stroke-miterlimit="10"/>
<path d="M224.12 253.06C224.03 246.76 233.93 246.76 233.83 253.06C233.92 259.36 224.02 259.36 224.12 253.06Z" stroke="#FF6FFF" stroke-width="3" stroke-miterlimit="10"/>
<path d="M4.95974 6.96011C4.86974 0.660108 14.7697 0.660108 14.6697 6.96011C14.7597 13.2601 4.85974 13.2601 4.95974 6.96011Z" stroke="#FF6FFF" stroke-width="3" stroke-miterlimit="10"/>
<path d="M2.44997 26.7602C2.35997 20.4602 12.26 20.4602 12.16 26.7602C12.25 33.0602 2.34997 33.0602 2.44997 26.7602Z" stroke="#FF6FFF" stroke-width="3" stroke-miterlimit="10"/>
<path d="M12.1699 10.51L30.4599 28.8H183.57C203.07 28.8 218.88 44.61 218.88 64.11V246.3L223.74 250" stroke="#FF6FFF" stroke-width="3" stroke-miterlimit="10"/>
</svg>
