<svg width="1020" height="286" viewBox="0 0 1020 286" fill="none" xmlns="http://www.w3.org/2000/svg">
<path d="M343.26 86.4038L349.695 22.5312H379.533L371.228 104.723L359.938 104.79C350.007 104.835 342.235 96.2766 343.237 86.4038H343.26Z" fill="white"/>
<path d="M381.203 86.404L388.975 7.55514L418.902 7.48828L417.477 22.3087L432.73 22.3755L430.481 44.8401L415.139 44.907L411.398 82.3479H426.361L424.268 104.813L397.792 104.768C387.928 104.768 380.223 96.2323 381.203 86.404Z" fill="white"/>
<path d="M437.896 44.84L442.394 0H472.232L469.716 24.8046C468.558 36.1484 459.027 44.7955 447.626 44.84H437.918H437.896Z" fill="white"/>
<path d="M551.37 22.3084L549.055 44.9959L504.164 44.929L503.273 52.4841H529.771C539.658 52.4841 547.385 61.0197 546.383 70.8703L544.49 89.7467C543.644 98.3047 536.429 104.812 527.856 104.79L468.402 104.723L470.562 82.4814H515.208L515.965 74.9264L489.69 74.8372C479.825 74.8149 472.143 66.2793 473.123 56.451L475.038 37.3517C475.884 28.7937 483.076 22.2861 491.649 22.2861H551.326L551.37 22.3084Z" fill="white"/>
<path d="M676.735 22.5312L668.429 104.812H638.658L640.372 89.6799L623.627 104.723H612.293C602.406 104.723 594.702 96.1874 595.682 86.3592L600.514 37.5968C601.36 29.0389 608.552 22.5312 617.125 22.5312H676.735ZM644.648 44.929H629.617L625.876 82.2808L641.063 82.3477L644.648 44.9067V44.929Z" fill="white"/>
<path d="M104.821 158.01L102.772 178.38L63.3589 178.291L64.3387 168.819H44.9215L40.045 217.537L59.5512 217.626L60.62 207.753L99.8328 207.664L97.2943 231.934C96.4036 240.447 89.2335 246.932 80.6606 246.91L16.6865 246.843C6.82211 246.843 -0.904652 238.308 0.075111 228.479L7.40107 154.667C8.24722 146.109 15.4396 139.602 24.0125 139.602H88.1647C98.0514 139.602 105.778 148.159 104.776 157.988L104.821 158.01Z" fill="white"/>
<path d="M212.617 158.01L205.158 231.867C204.289 240.402 197.097 246.91 188.524 246.91L124.995 246.843C115.131 246.843 107.404 238.308 108.384 228.479L115.71 154.667C116.556 146.109 123.748 139.602 132.321 139.602H195.983C205.87 139.602 213.597 148.16 212.595 158.01H212.617ZM172.625 168.819H153.208L148.331 217.537L167.838 217.626L172.625 168.797V168.819Z" fill="white"/>
<path d="M320.458 157.988L311.573 246.932L272.65 247.021L280.466 168.797H260.759L253.055 246.91L214.421 246.821L225.065 139.602H303.869C313.756 139.602 321.482 148.137 320.48 157.988H320.458Z" fill="white"/>
<path d="M452.57 139.312L449.541 168.908L368.733 168.819L367.553 178.691H407.723C417.61 178.691 425.337 187.227 424.335 197.078L420.861 231.889C420.015 240.447 412.8 246.954 404.227 246.932L322.083 246.843L324.911 217.848H383.162L384.142 207.976L344.284 207.842C334.419 207.82 326.737 199.284 327.717 189.456L331.213 154.377C332.059 145.819 339.251 139.312 347.824 139.312H452.547H452.57Z" fill="white"/>
<path d="M539.791 228.546L548.765 139.624H587.688L576.867 246.843L556.514 246.954C546.583 246.999 538.812 238.441 539.814 228.568L539.791 228.546Z" fill="white"/>
<path d="M693.814 157.72L690.696 188.431H651.573L653.532 168.797H634.115L626.121 246.91L587.376 246.821L596.617 154.355C597.463 145.797 604.655 139.29 613.228 139.29H677.202C687.089 139.29 694.816 147.847 693.814 157.698V157.72Z" fill="white"/>
<path d="M803.592 139.624L792.77 246.932H753.936L756.185 227.209L734.34 246.843H713.944C704.057 246.843 696.352 238.307 697.332 228.479L704.658 154.689C705.504 146.131 712.697 139.624 721.27 139.624H803.614H803.592ZM761.729 168.819H742.112L737.235 217.536L757.031 217.626L761.707 168.796L761.729 168.819Z" fill="white"/>
<path d="M1020.01 139.624L1006.87 270.845C1006.02 279.381 998.832 285.888 990.26 285.888H926.53C916.666 285.888 908.939 277.375 909.897 267.547L910.921 256.983L969.261 256.894L970.33 247.133L930.405 247.066C920.54 247.066 912.836 238.508 913.816 228.68L922.723 139.624H961.646L953.83 217.648H973.158L980.974 139.713L1020.01 139.624Z" fill="white"/>
<path d="M910.141 158.01L908.092 178.38L868.679 178.291L869.659 168.819H850.242L845.365 217.537L864.871 217.626L865.94 207.753L905.153 207.664L902.615 231.934C901.724 240.447 894.554 246.932 885.981 246.91L822.007 246.843C812.142 246.843 804.416 238.308 805.395 228.479L812.721 154.667C813.568 146.109 820.76 139.602 829.333 139.602H893.485C903.372 139.602 911.098 148.159 910.096 157.988L910.141 158.01Z" fill="white"/>
<path d="M440.657 139.312L426.094 285.889L465.106 285.978L472.989 215.887C470.651 214.082 468.357 211.809 466.108 209.313L451.501 215.598L451.256 214.862C451.323 215.018 452.636 213.258 452.725 213.146C453.883 211.475 454.974 209.736 456.066 208.02C458.916 203.518 461.677 198.972 464.572 194.493C466.041 192.219 467.511 189.924 469.493 188.052C471.72 185.979 474.547 184.597 477.22 183.193C481.829 180.786 486.906 180.876 491.137 183.706C493.052 184.999 494.944 186.826 496.236 188.943C496.859 189.968 498.952 198.549 500.912 195.094C501.046 194.849 501.268 194.693 501.201 194.359L493.831 174.479C493.831 172.741 494.588 171.092 495.813 170.111C496.993 169.153 503.116 165.676 504.452 165.208C508.282 163.871 508.505 167.37 510.064 169.888C511.667 172.474 514.718 173.989 513.76 178.134C513.449 179.494 511.756 183.661 511.11 184.954C510.955 185.244 510.799 185.533 510.531 185.712L507.637 178.068C506.679 176.062 504.475 174.858 502.649 176.374L508.706 193.802C509.44 196.498 508.928 197.568 507.459 199.864C501.892 206.171 500.533 207.107 494.944 213.347C490.201 218.673 485.703 220.389 481.428 219.787L478.645 246.91H512.313C520.886 246.91 528.078 240.402 528.924 231.844L536.339 157.653C537.319 147.803 529.592 139.267 519.728 139.267H440.723L440.657 139.312Z" fill="white"/>
</svg>