<?xml version="1.0" encoding="UTF-8"?>
<svg id="Layer_1" data-name="Layer 1" xmlns="http://www.w3.org/2000/svg" xmlns:xlink="http://www.w3.org/1999/xlink" viewBox="0 0 334.69 108.78">
  <defs>
    <style>
      .cls-1 {
        fill: url(#linear-gradient-2);
      }

      .cls-2 {
        fill: #fff;
      }

      .cls-3 {
        fill: url(#linear-gradient);
      }

      .cls-4 {
        fill: #3bbeff;
      }

      .cls-5 {
        fill: #f70069;
      }
    </style>
    <linearGradient id="linear-gradient" x1="54.3" y1="-46.57" x2="260.86" y2="159.99" gradientUnits="userSpaceOnUse">
      <stop offset=".79" stop-color="#fff"/>
      <stop offset="1" stop-color="#3bbeff"/>
    </linearGradient>
    <linearGradient id="linear-gradient-2" x1="156.15" y1="92.44" x2="50.12" y2="92.44" gradientUnits="userSpaceOnUse">
      <stop offset="0" stop-color="#3bbeff"/>
      <stop offset="1" stop-color="#f70069"/>
    </linearGradient>
  </defs>
  <g>
    <path class="cls-3" d="M326.65,61.9c-6.34-6.37-16.06-9.76-24.99-8.83-.17.02-.33.04-.5.06-1.15-1.05-2.6-2.23-4.38-3.56-2.79-2.08-4.47-3.49-5.1-4.31-.67-.9-1.02-1.84-1.02-2.79,0-.67.16-1.33.51-2,.59-1.14,1.37-2.04,2.35-2.78,1.1-.86,2.04-1.29,2.82-1.29.63,0,.94.35.94,1.06,0,.16.08.35.27.63.67,1.14,1.57,1.69,2.71,1.69h.71c.43-.04.98-.39,1.57-1.06.51-.67.78-1.49.78-2.39,0-.27-.04-.78-.12-1.57-.12-.75-.63-1.65-1.53-2.67-1.37-1.37-3.02-2.08-4.98-2.08-.12,0-.71,0-1.8.04-1.1.04-2.67.74-4.67,2.08-2,1.37-3.61,3.22-4.82,5.61-.43.86-.75,1.61-.86,2.2-.12.59-.2,1.41-.2,2.47,0,1.84.37,3.48,1.09,4.92-.5.72-1.11,1.76-1.83,3.16-1.53,3.02-3.33,5.69-5.37,8.04-.63.67-.94,1.02-1.02,1.02-.04,0-.12-.16-.31-.51-.2-.31-.43-.71-.67-1.18-.59-1.26-1.53-2.51-2.75-3.8-1.26-1.26-3.02-2.75-5.33-4.47-2.78-2.08-4.47-3.49-5.1-4.31-.67-.9-1.02-1.84-1.02-2.79,0-.67.16-1.33.51-2,.59-1.14,1.37-2.04,2.35-2.78,1.1-.86,2.04-1.29,2.82-1.29.63,0,.94.35.94,1.06,0,.16.08.35.27.63.67,1.14,1.57,1.69,2.71,1.69h.71c.43-.04.98-.39,1.57-1.06.51-.67.78-1.49.78-2.39,0-.27-.04-.78-.12-1.57-.12-.75-.63-1.65-1.53-2.67-1.37-1.37-3.02-2.08-4.98-2.08-.12,0-.71,0-1.8.04-1.1.04-2.67.75-4.67,2.08-2,1.37-3.61,3.22-4.83,5.61-.43.86-.75,1.61-.86,2.2-.12.59-.2,1.41-.2,2.47,0,1.75.34,3.33,1,4.72-.56.74-1.37,2.21-2.45,4.38-2.2,4.35-4.55,7.81-7.02,10.36-1.96,2.16-3.92,3.26-5.84,3.26-3.57,0-5.88-2.98-7.02-8.94-.16-.67-.2-1.18-.2-1.53,0-.31.04-.59.16-.78.12-.23.67-.43,1.61-.55,1.8-.39,3.73-1.37,5.77-2.9,2.04-1.53,3.61-3.18,4.75-4.98.59-1.02,1.1-2.16,1.45-3.45.39-1.29.59-2.43.59-3.49,0-2.55-.75-4.51-2.24-5.81-1.61-1.49-3.33-2.24-5.18-2.24-.78,0-2.08.28-3.88.86-1.8.59-3.69,2.63-5.65,6.16-.78,1.45-1.49,3.3-2.2,5.49-.67,2.2-1.14,4.16-1.37,5.88-.03.2-.04.41-.06.61-.12.35-.24.73-.37,1.16-.63,1.96-1.26,3.61-1.88,4.94-.67,1.37-1.49,2.86-2.55,4.55-2.12,3.26-3.61,4.9-4.55,4.9-2.51,0-4.51-4.43-6.04-13.26l-.82-4.79c2.04-2.51,4.16-5.81,6.39-9.88,2.08-3.88,3.69-7.3,4.79-10.24,1.53-4.59,2.28-8.83,2.28-12.75,0-7.41-2.16-11.22-6.43-11.42l-.75-.04c-1.57,0-2.98.47-4.24,1.45-1.26.98-2.51,2.79-3.77,5.41-1.41,2.9-2.51,5.84-3.22,8.79-1.14,4.75-1.69,10.98-1.69,18.71,0,3.74.16,7.16.45,10.28-.32.58-.62,1.34-.91,2.31-.82,2.71-2.35,6.08-4.55,10-1.8,3.18-3.18,4.78-4.24,4.78-.51,0-1.14-.43-1.92-1.33-1.77-1.96-2.82-6.28-3.22-12.98l-.2-3.73,1.33-2c1.02-1.61,2.28-3.92,3.77-6.94,1.45-3.02,2.51-5.45,3.14-7.26,2.2-7.1,3.3-12.79,3.3-17.06,0-1.57-.12-2.94-.43-4.12-.39-1.14-1.02-2.24-1.92-3.29-1.61-1.92-3.45-2.86-5.57-2.86-.47,0-1.18.08-2.12.27-2.86.63-5.14,4.55-6.82,11.85-1.02,4.55-1.57,9.37-1.61,14.51,0,1.88,0,2.98-.08,3.37-.04.39-.16.59-.31.59l-.2-.04c-1.37-.47-2.75-.71-4.16-.71-1.77,0-3.57.39-5.37,1.18-4.03,1.71-6.8,6.22-8.32,13.52-.7,1.02-1.61,3.03-2.78,6.05-2.04,5.14-3.88,8.67-5.49,10.55l-1.18,1.26c-.08-.31-.16-.63-.23-.94-.08-.27-.12-.86-.12-1.77,0-1.77.12-4.78.35-9.06.2-3.41.31-6.35.31-8.83s-.16-4.86-.47-7.18c-.31-2.31-1.22-4.16-2.75-5.53-1.22-1.26-2.59-1.88-4.04-1.88-.28,0-.9.04-1.88.16-1.02.12-2.82,1.18-5.45,3.18-1.18.86-1.84,1.29-2,1.29-.2,0-.27-.31-.27-.98,0-.63-.27-1.22-.86-1.73-.59-.51-1.29-.78-2.08-.78-1.92,0-2.98,1.22-3.26,3.69-.11,1.29-.19,5.48-.22,12.55-.46.84-.94,2.02-1.47,3.54-1.22,3.41-2.51,6.35-3.8,8.86-1.29,2.51-2.24,3.77-2.75,3.77-.31,0-.59-.39-.9-1.18-.86-2.2-1.29-5.61-1.29-10.2,0-3.26.24-7.14.67-11.61.31-3.45.47-5.57.47-6.39s-.39-1.53-1.18-2.2c-.67-.51-1.26-.75-1.84-.75-1.29,0-2.2.55-2.67,1.61-.27.67-.59,2.75-.94,6.24-.47,4.16-.86,9.02-1.18,14.63-2.67,4.86-4.35,7.81-5.06,8.79-1.1,1.49-2.2,2.24-3.22,2.24-1.57,0-2.63-2.2-3.22-6.59-.16-1.26-.24-3.77-.24-7.57,0-5.61.16-10.32.43-14.08.08-.55.08-.98.08-1.29,0-.55-.04-.98-.2-1.22-.47-.82-1.02-1.41-1.65-1.73-.31-.12-.75-.2-1.26-.2-1.49,0-2.47.75-2.9,2.2-.55,2.06-.86,6.41-.9,13.08-.19.27-.39.56-.59.89-.78,1.22-1.73,2.31-2.79,3.29-1.41,1.29-2.59,1.96-3.49,1.96-.12,0-.16-.12-.16-.27,0-.35.08-1.02.2-1.92.12-.94.16-1.84.16-2.71,0-2.9-.71-5.92-2.12-9.06-1.41-3.14-3.53-5.45-6.39-6.9-1.53-.67-2.98-1.02-4.35-1.02-1.14,0-2.2.2-3.22.63-.43.23-.94.39-1.45.51s-.94.2-1.29.2c-1.77,0-3.49.98-5.14,2.94-1.65,2-2.86,4.55-3.61,7.69-.2.91-.35,2.01-.45,3.28-.91.68-1.51,1.86-2,2.84-.28.56-.55,1.09-.83,1.49-1.37,1.91-3.2,4.11-5.6,4.89.14-1.33.08-2.96.02-4.54-.03-.78-.06-1.54-.06-2.21,0-1.39-1.67-4.61-2.08-5.34-2.32-4.08-6-7.15-10.43-8.73.48-.3,1.01-.57,1.55-.85.66-.34,1.35-.69,1.97-1.12,5.55-3.82,8.26-8.97,7.64-14.51-.73-6.55-6.09-12.73-13.65-15.75C33.88.71,19.35-.4,13.58.13,8.32.61,3.67,3.12,1.44,6.67-.22,9.33-.45,12.45.78,15.71c2.2,5.83,8.73,9.02,14.93,11.36l.33,19.89-.08.11C5.4,49.18.06,58,1,65.38c.68,5.36,4.96,10.82,14.85,10.82.63,0,1.28-.02,1.95-.07,8.16-.55,25.61-4.26,31.34-9.71.45-.42.95-1.12,1.48-1.86.54-.75,1.21-1.68,1.59-1.93.45-.29,1.24-.47,2.02-.64.69-.16,1.4-.32,2-.57,2.57-1.1,4.99-2.92,6.91-5.16.09.76.19,1.47.32,2.09,1.57,6.55,4.86,10.79,9.88,12.63.75.23,1.61.35,2.63.35,4.51,0,8.24-2.67,11.18-8,.35-.67.67-1.18.9-1.53.39-.59.86-.9,1.49-1.02,3.22-.63,6.01-1.9,8.38-3.8.48,7.06,2.44,11.43,5.86,13.1,1.22.55,2.51.82,3.92.82,1.1,0,2.08-.16,2.9-.47,2.27-1.02,4.08-2.51,5.41-4.51.82-1.18,1.29-1.77,1.45-1.77.12,0,.39.47.82,1.37.47,1.02,1.14,1.96,2.04,2.78,1.26,1.22,2.67,1.8,4.2,1.8,2.82,0,5.49-2.04,7.92-6.2.09-.15.17-.3.26-.46.02,2.08.06,3.38.13,3.87.27,2.2,1.33,3.29,3.18,3.29h.31c.75,0,1.33-.31,1.84-1.02.51-.67.78-2.28.78-4.79l.12-21.38c2.67-2.55,5.22-4.67,7.61-6.32l1.53-.78c.9.43,1.37,3.22,1.37,8.35,0,2.55-.12,5.73-.35,9.45-.2,3.18-.31,5.73-.31,7.65,0,.71.04,1.69.12,2.94.04,1.26.35,2.39.9,3.41.82,1.45,2,2.43,3.53,2.98.43.12.9.2,1.41.2.35,0,.9-.08,1.65-.2,2.99-.42,5.89-3.36,8.7-8.78.05.22.11.44.16.66.75,3.02,2.55,5.45,5.33,7.33.86.55,1.73.82,2.55.82,1.26,0,2.24-.08,2.98-.31,2.35-.63,4.79-3.49,7.33-8.55l1.65-3.29.86,2.51c.55,1.61,1.02,2.82,1.49,3.65.47.86,1.14,1.73,1.96,2.63.86.9,1.61,1.53,2.31,1.92.71.43,1.61.71,2.71.86.51.12,1.02.16,1.49.16,2.63,0,5.02-1.41,7.18-4.27,1.02-1.33,2.16-3.22,3.41-5.69.31-.61.61-1.22.9-1.82.67,2.52,1.44,4.61,2.31,6.25,1.65,3.1,3.88,5.02,6.63,5.77.71.2,1.37.31,2.04.31,3.45,0,6.79-2.63,9.96-7.88.3-.49.58-.98.86-1.46.64,1.61,1.45,3.08,2.44,4.41,2.43,3.29,5.37,4.98,8.79,4.98,2.71,0,4.75-.35,6.12-1.06,1.37-.67,2.98-1.96,4.82-3.84,1.65-1.65,3.1-3.37,4.35-5.14,1.22-1.76,2.55-3.96,3.96-6.67.49-.93.88-1.76,1.2-2.51.39.31.79.62,1.23.94,2.39,1.77,4.16,3.14,5.33,4.16,2.24,1.92,3.33,3.73,3.33,5.45,0,1.57-.86,2.67-2.55,3.33-.82.31-1.69.47-2.55.47-.67,0-1.1-.2-1.33-.55l-.75-1.69c-.67-1.29-1.53-1.96-2.63-1.96-.35,0-.75.08-1.18.24-.67.27-1.14.59-1.41.94-.43.55-.67,1.33-.67,2.31,0,1.18.43,2.43,1.29,3.77.86,1.37,2,2.31,3.45,2.9.94.27,2.35.47,4.2.51,1.69,0,2.86-.16,3.53-.43.51-.2,1.18-.55,2.08-.98,6.71-3.69,12.32-9.77,16.91-18.2.19-.37.36-.72.53-1.06.33.26.68.52,1.04.79.8.59,2.27,1.13,2.67,2.09-.18.09-.37.2-.54.32-2.7,1.92-5.23,4.2-6.04,7.54-.63,2.56-.29,5.48,1.54,7.49.69.76,1.56,1.34,2.5,1.74,3.86,1.62,8.48.78,11.56-1.96,2.73-2.44,3.82-5.75,3.63-9.36-.02-.45-.13-.84-.42-1.18.38-.13.85-.02,1.25.02,5.87.62,11.8,3.41,15.73,7.84,3.35,3.78,6.35,9.6,4.78,14.76-2.06,6.76-10.02,7.1-15.88,6.71-.43-.03-.81.03-1.16.13v6.31c.35.15.72.25,1.16.28,8.82.59,19.05-1.58,22.18-11.04,2.68-8.08-1.53-17.12-7.22-22.84ZM42.21,64.57c-6.08,3.16-19.9,6.1-26.52,6.21-4.81.07-8.27-1.99-9.16-5.52-.86-3.41.86-8.44,6.64-11.42.87-.45,1.93-.74,2.96-1.02,2.47-.68,5.28-1.45,5.75-4.71.15-1.04-.03-1.91-.19-2.68-.11-.51-.21-.99-.21-1.5-.02-1.67-.02-3.34-.02-5,0-4.81.02-9.79-.6-14.69l-.03-.26-.21-.16c-1.88-1.43-3.94-2.29-5.93-3.12-3-1.25-5.84-2.43-7.95-5.45-1.32-1.89-1.58-3.69-.77-5.34,1.13-2.31,4.41-4.11,7.8-4.27.46-.02.94-.03,1.43-.03,3.61,0,7.79.58,11.85,1.14,3.49.48,6.79.94,9.79,1.06,6.8,2.55,11.07,7.56,10.87,12.77-.18,4.91-4.16,8.83-10.91,10.78-.69.2-1.52.31-2.4.44-2.69.37-6.03.83-5.93,4.33.1,3.32,4.16,3.3,6.85,3.3.8,0,1.57,0,2.07.07,6.09.94,10.67,5.46,11.67,11.51.74,4.46-.68,10.38-6.86,13.59ZM79.81,62.75c-1.18,1.29-2.43,1.96-3.77,1.96-1.22,0-2.39-.67-3.57-1.92-2.2-2.47-3.33-6.35-3.33-11.65,0-.75.04-1.49.08-2.24.16-2.67.31-4,.55-4,.2,0,.55.78,1.06,2.43,1.14,3.61,3.02,6.63,5.61,9.1,1.22,1.22,2.39,2.08,3.49,2.59,1.06.55,1.61.9,1.61,1.1,0,.47-.59,1.33-1.73,2.63ZM83.54,53.41h-.04c-.39,0-1.06-.35-1.96-1.02-1.45-1.14-2.63-2.63-3.61-4.51-1.22-2.31-1.8-4.82-1.8-7.45,0-.55.28-1.06.79-1.53.43-.47.86-.75,1.29-.75l.39.08c2.55.75,4.35,2.78,5.41,6,.39,1.29.55,2.94.55,4.98,0,2.75-.31,4.16-1.02,4.2ZM181.91,49.29c-1.96,6.24-4.04,10.9-6.24,14-.75,1.02-1.29,1.53-1.57,1.53-.23,0-.67-.35-1.29-1.1-1.45-2-2.2-4.82-2.2-8.39,0-2.47.35-5.1,1.02-7.88.94-3.84,2.16-6.32,3.57-7.37.98-.71,2.08-1.1,3.33-1.1s2.35.35,3.37.98c1.29.9,1.96,1.65,1.96,2.24,0,.63-.63,2.98-1.96,7.1ZM189.95,32.7c0-4.43.16-7.88.39-10.36.16-1.45.47-3.14.86-5.02.47-2.28.98-4.2,1.57-5.81.55-1.61,1.02-2.39,1.33-2.39.23,0,.55.31.94.9.43.43.63,1.06.63,1.92,0,3.02-.47,6.51-1.45,10.51-.78,3.26-1.69,6.12-2.71,8.59-.75,1.88-1.26,3.02-1.49,3.37-.04,0-.08-.59-.08-1.73ZM211.56,35.88c-.12,0-.16-.39-.16-1.22,0-2.51.2-5.69.63-9.53.51-4.86,1.84-9.34,3.96-13.42.86-1.69,1.53-2.55,1.92-2.55.08,0,.23.12.47.31.27.2.39,2,.39,5.45,0,4.86-1.69,10.47-5.02,16.87-1.33,2.71-2.08,4.08-2.2,4.08ZM234.89,46.31c1.02-3.29,2.16-5.77,3.33-7.45.94-1.37,1.88-2.08,2.75-2.08.74,0,1.1.51,1.1,1.49,0,2.08-.94,4.08-2.78,5.92-.94.9-1.88,1.65-2.9,2.2-.75.39-1.22.59-1.41.59-.12,0-.2-.08-.2-.2s.04-.27.12-.47ZM297.02,66c-.82.31-1.69.47-2.55.47-.5,0-.86-.11-1.12-.31-.62-3.18,2.21-4.92,5.58-5.78.41.78.63,1.54.63,2.28,0,1.57-.86,2.67-2.55,3.33Z"/>
    <path class="cls-1" d="M69.14,87.17v10.54c0,.74-.6,1.35-1.35,1.35h-10.64c-.74,0-1.35-.6-1.35-1.35v-1.55h-5.08c-.33,0-.6-.27-.6-.6v-6.24c0-.33.27-.6.6-.6h5.08v-1.55c0-.74.6-1.35,1.35-1.35h10.64c.74,0,1.35.6,1.35,1.35ZM154.12,89.1h-81.24v6.68h81.24c.79,0,1.46-.12,2.04-.33v-6.03c-.58-.2-1.25-.33-2.04-.33Z"/>
    <path class="cls-4" d="M30.73,21.96c.03,1.33-.41,3.4,1.07,4.07,3.25,1.46,2.05-3.38,2.8-3.91,6.57.54,6.45-4.29,0-3.86-.58-.37.66-2.72-1.04-3.56-2.31-1.13-2.9,2.02-2.84,3.72-5.97-.9-5.59,4.24,0,3.54Z"/>
    <g>
      <path class="cls-5" d="M39.06,55.22c-1.8,1.88-5.73-.8-3.68-3.19,1.85-2.14,5.31,1.47,3.68,3.19Z"/>
      <path class="cls-5" d="M32.82,47.48c2.56-.4,3.54,4.25.55,4.54-3.29.33-3.14-4.13-.55-4.54Z"/>
      <path class="cls-5" d="M30.86,52.76c1.65,1.65-.86,5.41-3.24,3.4-2.37-2,1.37-5.26,3.24-3.4Z"/>
      <path class="cls-5" d="M34.32,60.17c-2.98.89-4-3.42-1.5-4.15,2.92-.85,3.74,3.48,1.5,4.15Z"/>
    </g>
  </g>
  <path class="cls-2" d="M168.36,105.35c-2.22-2.22-3.44-5.19-3.44-8.36s1.21-6.1,3.44-8.32c2.22-2.26,5.19-3.47,8.36-3.47s6.1,1.21,8.36,3.47c.37.37.54.84.54,1.35s-.17,1.01-.57,1.42c-.4.4-.88.57-1.38.57s-1.01-.17-1.38-.57c-1.48-1.48-3.47-2.29-5.56-2.29s-4.08.81-5.56,2.29c-1.48,1.48-2.33,3.47-2.33,5.56s.84,4.08,2.33,5.56c1.52,1.55,3.54,2.32,5.56,2.32,1.79,0,3.54-.61,4.99-1.79v-4.14h-4.92c-1.08,0-1.99-.88-1.99-1.95s.91-1.95,1.99-1.95h6.87c1.08,0,1.95.88,1.95,1.95v6.94c0,.54-.2,1.05-.57,1.41-2.29,2.29-5.32,3.44-8.32,3.44s-6.06-1.15-8.36-3.44ZM211.18,106.09c.1.24.13.51.13.74,0,1.01-.78,1.95-1.95,1.95-.77,0-1.52-.47-1.82-1.25l-1.48-3.67h-9.13l-1.48,3.67c-.3.78-1.04,1.25-1.82,1.25-1.15,0-1.95-.98-1.95-1.95,0-.27.03-.51.13-.74l7.85-19.64c.3-.74,1.04-1.25,1.85-1.25s1.52.5,1.82,1.25l7.85,19.64ZM204.48,99.96l-2.96-7.51-3,7.51h5.96ZM235.07,106.83v-13.78l-5.29,7.08c-.37.51-.98.81-1.58.81s-1.21-.3-1.58-.81l-5.29-7.08v13.78c0,1.08-.88,1.95-1.99,1.95s-1.95-.88-1.95-1.95v-19.68c0-1.04.84-1.95,1.99-1.95.61,0,1.18.27,1.55.77l7.28,9.7,7.28-9.7c.37-.51.94-.77,1.55-.77,1.15,0,1.99.91,1.99,1.95v19.68c0,1.08-.88,1.95-1.99,1.95s-1.95-.88-1.95-1.95ZM259.83,106.83c0,1.08-.88,1.95-1.99,1.95h-10.78c-1.11,0-1.99-.88-1.99-1.95v-19.68c0-1.08.88-1.95,1.99-1.95h10.78c1.11,0,1.99.88,1.99,1.95s-.88,1.99-1.99,1.99h-8.83v5.9h6.87c1.08,0,1.95.88,1.95,1.95s-.88,1.95-1.95,1.95h-6.87v5.9h8.83c1.11,0,1.99.88,1.99,1.99ZM280.82,105.79c.2.34.3.67.3,1.04,0,.64-.34,1.28-.94,1.65-.3.2-.67.3-1.01.3-.67,0-1.31-.34-1.68-.91l-4.35-6.94h-3.3v5.9c0,1.08-.91,1.95-1.99,1.95s-1.95-.88-1.95-1.95v-19.68c0-1.08.88-1.95,1.95-1.95h5.36c.2,0,1.99.03,3.84.94,2.63,1.31,4.08,3.74,4.08,6.91,0,.2-.03,2.02-.94,3.84-.71,1.38-1.72,2.43-2.97,3.1l3.61,5.8ZM269.83,96.99h3.37c1.68,0,2.76-.57,3.4-1.79.54-1.01.57-2.09.57-2.16,0-1.68-.61-2.76-1.89-3.4-1.01-.51-2.09-.51-2.09-.51h-3.37v7.85ZM302.01,100.93v.34c0,1.95-.78,3.81-2.12,5.15-1.48,1.48-3.5,2.29-5.73,2.29h-.27c-2.86-.1-5.36-1.72-6.54-4.24-.13-.27-.17-.57-.17-.84,0-.74.4-1.45,1.15-1.79.27-.13.54-.17.81-.17.74,0,1.48.4,1.82,1.15.54,1.18,1.68,1.92,3.07,1.95h.17c1.18,0,2.16-.37,2.86-1.08.67-.67,1.05-1.52,1.05-2.43v-.13c-.1-1.55-3.03-2.93-4.31-3.3l-.13-.07c-3.47-1.25-5.22-3.44-5.22-6.47v-.27c.07-1.72.84-3.27,2.29-4.35,1.21-.94,2.86-1.52,4.62-1.52h.3c1.41.03,2.86.61,4.04,1.48.51.4.78.98.78,1.55,0,.4-.13.84-.4,1.18-.4.51-.98.77-1.58.77-.4,0-.81-.1-1.18-.37-.5-.4-1.18-.64-1.79-.67h-.2c-1.65,0-2.93.84-2.96,2.06v.13c0,1.65,1.28,2.26,2.59,2.8,1.01.3,6.87,2.19,7.08,6.84Z"/>
</svg>